<?xml version="1.0" encoding="UTF-8"?>
<!-- Generator: Adobe Illustrator 27.0.0, SVG Export Plug-In . SVG Version: 6.00 Build 0)  -->
<svg version="1.1" id="Layer_1" xmlns="http://www.w3.org/2000/svg" xmlns:xlink="http://www.w3.org/1999/xlink" x="0px" y="0px" viewBox="0 0 512 512" style="enable-background:new 0 0 512 512;" xml:space="preserve">
<style type="text/css">
	.st0{fill:#FFFFFF;}
	.st1{fill:#3B3B63;}
	.st2{fill:#DBDBDB;}
	.st3{fill:#C6C6C6;}
	.st4{fill:#53537A;}
	.st5{fill:#BC9375;}
	.st6{fill:#073251;}
	.st7{fill:#C49A7E;}
	.st8{fill:#D8B7A0;}
	.st9{fill:#333152;}
</style>
<g id="XMLID_1_">
	<path class="st0" d="M365.66,121.87c-10.38-32.39-34.22-77.83-37.58-84.28l-2.94-5.61c-2.94-5.75-5.05-9.96-5.89-11.5L308.59,0.15   L293.3,108.97l-0.56,3.93c-11.5-0.7-23.7-0.98-36.6-0.98c-12.9,0-25.24,0.42-36.74,0.98l-0.42-3.93l-5.33-38.14l-9.96-70.68   l-10.94,20.33c-0.98,1.82-3.93,7.57-7.85,15.29l-0.98,1.68c-3.37,6.45-27.35,52.03-37.86,84.42c-30.29,5.89-46.7,12.06-46.7,12.06   v264.62L256,512.15L412.64,398.7V134.07C412.64,134.07,396.1,127.76,365.66,121.87z"/>
	<polygon class="st1" points="323.45,327.32 255.86,327.32 255.86,211.63 187.42,323.95 176.77,439.09 254.88,496.16 255.86,497    335.79,438.67  "/>
	<path class="st2" d="M254.74,495.74L109.45,390.43V144.73c0,0,53.71-20.47,145.56-20.47s145.14,20.47,145.14,20.47v245.69   L254.74,495.74z"/>
	<path class="st3" d="M256.84,124.26h-0.14v371.48l0,0l145.28-105.32V144.73C401.99,144.73,348.56,124.26,256.84,124.26"/>
	<polygon class="st1" points="335.37,438.53 323.03,327.32 255.44,327.32 255.44,496.72  "/>
	<polygon class="st4" points="176.77,439.09 255.86,497 255.86,211.63 187.42,323.95  "/>
	<path class="st5" d="M289.94,406.27c0,19.07-17.53,28.47-33.52,28.47c-15.99,0-33.94-9.4-33.94-28.47"/>
	<path class="st6" d="M280.12,395.47c0,22.3-11.78,28.33-23.98,28.33c-12.06,0-23.98-6.03-23.98-28.33"/>
	<path class="st0" d="M256.14,416.09c-12.9,0-19.21-9.68-19.21-29.45h6.17c0,23.14,8.83,23.14,13.04,23.14   c4.21,0,13.04,0,13.04-23.14h6.17C275.35,406.55,269.04,416.09,256.14,416.09"/>
	<path class="st7" d="M358.51,158.9c0-24.12-40.11-99.99-40.11-99.99l-13.6,96.2l-12.2,20.33l-36.46,1.54l-0.14,0.28v-0.28   l-36.46-1.54l-12.2-20.33l-13.6-96.2c0,0-40.11,75.87-40.11,99.99l16.97,46.42c0,0-8.55,77.83-4.63,88.07   c3.93,10.24,30.85,44.31,30.85,44.31s-0.14,28.61,7.29,49.22c5.33,14.72,16.97,20.61,28.05,20.61c17.11,0,23.7-15.85,23.7-15.85   s6.87,15.85,23.84,15.85c11.08,0,22.72-5.89,28.05-20.61c7.43-20.61,7.29-49.22,7.29-49.22s27.07-34.08,30.85-44.31   c3.93-10.24-4.63-88.07-4.63-88.07L358.51,158.9z"/>
	<path class="st8" d="M256.14,177.13v0.14v-0.28l-36.46-1.54l-12.2-20.33l-13.6-96.2c0,0-40.11,75.87-40.11,99.99l16.97,46.42   c0,0-8.55,77.83-4.63,88.07c3.93,10.24,30.85,44.31,30.85,44.31s0,28.61,7.29,49.22c5.33,14.72,16.97,20.61,28.05,20.61   c17.11,0,23.7-15.85,23.7-15.85s0,0,0.14,0.14V177.13L256.14,177.13z"/>
	<path class="st1" d="M341.96,209.8c-3.09-6.59,1.26-22.3,1.26-22.3c-25.38-26.36-31.69-81.48-31.69-81.48   c-4.63,17.39-14.86,68.58-14.86,68.58s-18.93-7.15-40.39-7.15h-0.14H256c-1.12,0-2.38,0-3.51,0.14v215.68l1.54,2.38v-1.12h0.98   v1.12v-1.12h1.96v1.12v-1.12h0.98v1.12l17.53-25.94l3.79-72.92l21.74,25.24l28.05,8.27l10.52-7.57c4.49-6.31,5.89-11.78,7.01-14.58   C350.8,287.77,341.96,209.8,341.96,209.8"/>
	<path class="st4" d="M256.42,167.31C256.28,167.31,256.28,167.31,256.42,167.31L256.42,167.31c-21.6,0-40.53,7.15-40.53,7.15   s-10.24-51.19-15.01-68.43c0,0-6.31,54.97-31.69,81.48c0,0,4.49,15.71,1.26,22.3c0,0-8.69,78.11-4.91,88.21   c1.12,2.8,2.52,8.27,7.01,14.58l10.52,7.57l28.05-8.27l21.74-25.24l3.79,72.92l17.53,25.94v-1.12h0.98v1.12v-1.12h0.98   L256.42,167.31L256.42,167.31z"/>
	<path class="st9" d="M307.19,258.6L307.19,258.6h-24.54h-8.13v0.42c0,11.64,9.96,21.04,21.46,21.04c11.64,0,21.46-9.4,21.46-21.04   v-0.42H307.19L307.19,258.6z"/>
	<path class="st0" d="M282.5,258.6v0.42c0,6.87,5.47,12.48,12.34,12.48c6.87,0,12.34-5.61,12.34-12.48v-0.42H282.5L282.5,258.6z"/>
	<path class="st9" d="M298.63,258.6h-5.75h-0.14c0.7,0.14,1.12,1.82,0.98,2.94c-0.28,1.68-1.68,2.8-3.23,2.8   c0.42,2.24,2.24,3.93,4.63,4.35c2.94,0.42,5.75-1.68,6.17-4.63C301.44,261.83,300.31,258.6,298.63,258.6"/>
	<path class="st9" d="M227.95,258.6L227.95,258.6h-24.54h-8.13v0.42c0,11.64,9.96,21.04,21.46,21.04c11.64,0,21.46-9.4,21.46-21.04   v-0.42H227.95L227.95,258.6z"/>
	<path class="st0" d="M203.41,258.6v0.42c0,6.87,5.47,12.48,12.34,12.48c6.87,0,12.34-5.61,12.34-12.48v-0.42H203.41L203.41,258.6z"/>
	<path class="st9" d="M219.4,258.6h-5.75h-0.14c0.7,0.14,1.12,1.82,0.98,2.94c-0.28,1.68-1.68,2.8-3.23,2.8   c0.42,2.24,2.24,3.93,4.63,4.35c2.94,0.42,5.75-1.68,6.17-4.63C222.2,261.83,221.22,258.6,219.4,258.6"/>
	<path class="st7" d="M304.66,248.65c1.4-1.54,13.04-15.01-2.52-15.01c-14.16,0-24.26,11.64-26.93,15.01H304.66z"/>
	<path class="st8" d="M237.21,248.65c-2.66-3.37-12.9-15.01-26.93-15.01c-15.57,0-3.93,13.46-2.52,15.01H237.21z"/>
	<polygon class="st4" points="187.57,258.46 247.45,258.46 247.45,252.71 187.57,252.71  "/>
	<path class="st9" d="M343.09,177.55c-17.39-24.82-22.86-65.21-23.28-68.86l3.23-22.44c12.9,26.64,26.5,58.34,27.35,71.52   L343.09,177.55z M338.6,290.44c-2.38,6.17-18.79,28.33-29.73,42.07l-1.82,2.24v2.94c0,0.28,0,27.35-6.87,46.42   c-4.91,13.74-15.85,15.15-20.33,15.15c-11.36,0-16.27-10.52-16.41-10.94l-0.7-9.82h-13.74l-0.56,9.82   c-0.14,0.42-4.91,10.94-16.27,10.94c-4.49,0-15.43-1.4-20.33-15.15c-6.73-18.93-6.87-46.14-6.87-46.42v-2.94l-1.82-2.24   c-10.94-13.74-27.35-35.9-29.59-41.93c-1.82-6.59,1.26-48.8,5.05-84.28l0.28-1.96l-3.09-8.41c10.52-11.22,17.95-26.64,23-41.37   l0.56,3.65l16.69,27.91l6.59-2.8c0.14-0.14,16.97-7.29,33.24-7.29c16.13,0,33.24,7.29,33.38,7.29l6.59,2.8l16.69-27.91l0.7-4.63   c5.05,14.86,12.48,30.57,23,42.07l-3.23,8.83l0.28,1.96C337.34,241.78,340.42,283.99,338.6,290.44L338.6,290.44z M246.04,413.14   c2.24-0.98,4.21-2.1,5.89-3.51c1.54,0.42,3.09,0.42,4.35,0.42c1.12,0,2.66,0,4.21-0.42c1.68,1.26,3.79,2.52,5.89,3.51   c-2.8,2.1-6.17,3.23-10.24,3.23S248.71,415.11,246.04,413.14L246.04,413.14z M256.42,430.81c-8.98,0-21.74-4.07-24.96-14.86   c0.28,0,0.7,0,0.98,0c1.68,0,3.37-0.14,4.91-0.42c4.63,6.45,11.64,8.41,18.93,8.41c7.15,0,14.3-1.96,18.93-8.41   c1.54,0.28,3.23,0.42,4.91,0.42c0.28,0,0.7,0,0.98,0C277.88,426.75,265.26,430.81,256.42,430.81L256.42,430.81z M162.04,157.63   c0.98-13.18,14.44-44.88,27.35-71.52l3.51,24.4c-1.26,9.12-7.29,44.88-23.42,67.45L162.04,157.63z M366.51,159.04   c0-25.52-36.74-96.06-40.95-103.91l-11.78-22.3l-16.83,119.62l-7.71,13.04c-7.57-2.52-20.33-6.17-33.1-6.17   c-12.9,0-25.52,3.51-32.96,6.17l-7.71-13.04l-5.89-41.93v-0.14l0,0L198.5,32.68l-12.06,22.3c-4.21,7.99-41.23,78.53-41.23,103.91   v1.54l16.97,45.86c-2.66,24.96-7.85,79.37-3.79,90.03c2.52,6.59,12.34,20.33,20.61,31.41l-11.08,105.18l15.29,10.94l8.13-76.57   c1.12,7.43,2.94,15.29,5.47,22.44c3.51,9.82,9.68,17.25,17.67,21.6c0.42,23.42,21.88,36.04,42.07,36.04   c20.05,0,41.23-12.62,41.79-36.04c7.99-4.35,14.16-11.78,17.67-21.6c2.66-7.43,4.35-15.57,5.61-23.28l8.13,76.85l15.29-11.36   l-11.08-104.48c8.13-10.94,17.81-24.4,20.33-30.99c4.07-10.66-1.26-64.93-4.07-90.03l16.69-45.86L366.51,159.04L366.51,159.04z"/>
	<path class="st9" d="M275.49,350.04h-38.42c0,0-5.19,9.12-5.19,12.06c0,8.83,23.7,22.86,23.7,22.86s24.96-14.44,24.96-22.86   C280.54,358.03,275.49,350.04,275.49,350.04"/>
	<path class="st7" d="M268.06,376.82c-2.1-3.93-4.91-4.63-6.17-1.54c-1.26,2.94-0.56,8.55,1.54,12.34c2.1,3.93,4.91,4.63,6.17,1.54   C271.01,386.22,270.16,380.75,268.06,376.82"/>
	<path class="st8" d="M244.36,376.82c-2.1,3.79-2.8,9.4-1.54,12.34c1.26,2.94,4.07,2.24,6.17-1.54s2.8-9.4,1.54-12.34   C249.27,372.34,246.46,373.04,244.36,376.82"/>
</g>
</svg>